<?xml version="1.0" standalone="no"?>
<!DOCTYPE svg PUBLIC "-//W3C//DTD SVG 20010904//EN"
 "http://www.w3.org/TR/2001/REC-SVG-20010904/DTD/svg10.dtd">
<svg version="1.0" xmlns="http://www.w3.org/2000/svg"
 width="260.000000pt" height="260.000000pt" viewBox="0 0 260.000000 260.000000"
 preserveAspectRatio="xMidYMid meet">
<metadata>
Created by potrace 1.11, written by Peter Selinger 2001-2013
</metadata>
<g transform="translate(0.000000,260.000000) scale(0.100000,-0.100000)"
fill="#000000" stroke="none">
<path d="M710 1909 c0 -5 18 -87 41 -182 23 -94 42 -179 44 -187 3 -13 27
-117 41 -172 9 -38 15 -63 88 -373 42 -175 76 -320 76 -322 0 -2 71 -3 159 -3
l159 0 7 46 c3 25 13 70 21 99 7 30 16 69 19 87 3 18 10 49 15 68 5 19 11 46
14 60 2 14 21 98 40 188 20 89 38 177 40 195 11 75 27 162 32 166 2 2 4 -9 5
-25 1 -35 4 -66 19 -159 7 -38 14 -83 16 -100 3 -16 7 -37 9 -45 2 -8 7 -28 9
-45 7 -39 94 -483 101 -512 5 -23 8 -23 160 -23 l155 0 6 27 c6 28 177 694
258 1008 24 94 46 180 49 191 4 21 2 22 -139 22 -158 0 -147 4 -159 -68 -3
-19 -8 -42 -10 -50 -2 -8 -7 -31 -10 -50 -3 -19 -17 -87 -30 -150 -13 -63 -27
-131 -30 -150 -3 -19 -17 -93 -30 -165 -13 -71 -26 -155 -30 -185 -15 -131
-19 -131 -39 6 -10 71 -29 185 -42 254 -13 69 -26 139 -29 155 -3 17 -8 41
-10 55 -8 41 -14 69 -36 190 -31 173 -12 157 -186 156 l-148 -1 -42 -200 c-23
-110 -44 -213 -47 -230 -3 -16 -17 -86 -31 -155 -25 -122 -31 -154 -41 -215
-21 -136 -26 -139 -45 -25 -10 58 -21 123 -24 145 -4 22 -15 85 -25 140 -11
55 -22 116 -25 135 -3 19 -12 69 -20 110 -19 106 -47 251 -50 269 -2 9 -4 19
-4 22 -2 10 -301 8 -301 -2z"/>
<path d="M485 1526 c-57 -25 -81 -91 -53 -150 32 -72 158 -85 216 -23 67 71 5
187 -98 186 -19 0 -49 -6 -65 -13z"/>
<path d="M430 1210 c-1 -8 0 -136 0 -285 1 -148 2 -305 1 -347 l0 -78 123 0
122 0 -2 308 c-2 169 -3 332 -4 362 l0 56 -120 -1 c-100 0 -120 -2 -120 -15z"/>
</g>
</svg>
