<svg version="1.0" xmlns="http://www.w3.org/2000/svg" width="346.667" height="346.667" viewBox="0 0 260 260"><path d="M71 69.1c0 .5 1.8 8.7 4.1 18.2 2.3 9.4 4.2 17.9 4.4 18.7.3 1.3 2.7 11.7 4.1 17.2.9 3.8 1.5 6.3 8.8 37.3 4.2 17.5 7.6 32 7.6 32.2 0 .2 7.1.3 15.9.3h15.9l.7-4.6c.3-2.5 1.3-7 2.1-9.9.7-3 1.6-6.9 1.9-8.7.3-1.8 1-4.9 1.5-6.8.5-1.9 1.1-4.6 1.4-6 .2-1.4 2.1-9.8 4-18.8 2-8.9 3.8-17.7 4-19.5 1.1-7.5 2.7-16.2 3.2-16.6.2-.2.4.9.5 2.5.1 3.5.4 6.6 1.9 15.9.7 3.8 1.4 8.3 1.6 10 .3 1.6.7 3.7.9 4.5.2.8.7 2.8.9 4.5.7 3.9 9.4 48.3 10.1 51.2.5 2.3.8 2.3 16 2.3H198l.6-2.7c.6-2.8 17.7-69.4 25.8-100.8 2.4-9.4 4.6-18 4.9-19.1.4-2.1.2-2.2-13.9-2.2-15.8 0-14.7-.4-15.9 6.8-.3 1.9-.8 4.2-1 5-.2.8-.7 3.1-1 5-.3 1.9-1.7 8.7-3 15-1.3 6.3-2.7 13.1-3 15-.3 1.9-1.7 9.3-3 16.5-1.3 7.1-2.6 15.5-3 18.5-1.5 13.1-1.9 13.1-3.9-.6-1-7.1-2.9-18.5-4.2-25.4-1.3-6.9-2.6-13.9-2.9-15.5-.3-1.7-.8-4.1-1-5.5-.8-4.1-1.4-6.9-3.6-19-3.1-17.3-1.2-15.7-18.6-15.6l-14.8.1-4.2 20c-2.3 11-4.4 21.3-4.7 23-.3 1.6-1.7 8.6-3.1 15.5-2.5 12.2-3.1 15.4-4.1 21.5-2.1 13.6-2.6 13.9-4.5 2.5-1-5.8-2.1-12.3-2.4-14.5-.4-2.2-1.5-8.5-2.5-14-1.1-5.5-2.2-11.6-2.5-13.5-.3-1.9-1.2-6.9-2-11-1.9-10.6-4.7-25.1-5-26.9-.2-.9-.4-1.9-.4-2.2-.2-1-30.1-.8-30.1.2zm-22.5 38.3c-5.7 2.5-8.1 9.1-5.3 15 3.2 7.2 15.8 8.5 21.6 2.3 6.7-7.1.5-18.7-9.8-18.6-1.9 0-4.9.6-6.5 1.3zM43 139c-.1.8 0 13.6 0 28.5.1 14.8.2 30.5.1 34.7v7.8h24.5l-.2-30.8c-.2-16.9-.3-33.2-.4-36.2v-5.6l-12 .1c-10 0-12 .2-12 1.5z"/></svg>